FFmpeg version SVN-r25716, Copyright (c) 2000-2010 the FFmpeg developers  built on Nov 10 2010 12:23:18 with gcc 4.1.2 20080704 (Red Hat 4.1.2-48)  configuration: --enable-libmp3lame --enable-shared --disable-mmx --arch=x86_64  libavutil     50.33. 0 / 50.33. 0  libavcore      0.12. 1 /  0.12. 1  libavcodec    52.94. 4 / 52.94. 4  libavformat   52.84. 0 / 52.84. 0  libavdevice   52. 2. 2 / 52. 2. 2  libavfilter    1.59. 0 /  1.59. 0  libswscale     0.12. 0 /  0.12. 0Input #0, avi, from '/RAID10/data/converted_video_files/31932.avi':  Duration: 00:00:14.40, start: 0.000000, bitrate: 495456 kb/s    Stream #0.0: Video: rawvideo, bgr24, 1344x1024, 15 tbr, 15 tbn, 15 tbc[buffer @ 0x117ec9f0] w:1344 h:1024 pixfmt:bgr24[ffsink @ 0x117ecc60] auto-inserting filter 'auto-inserted scaler 0' between the filter 'src' and the filter 'out'[scale @ 0x117ecf80] w:1344 h:1024 fmt:bgr24 -> w:1344 h:1024 fmt:yuv420p flags:0x4Output #0, flv, to '/RAID10/data/converted_video_files/31932.flv':  Metadata:    encoder         : Lavf52.84.0    Stream #0.0: Video: flv, yuv420p, 1344x1024, q=2-31, 600 kb/s, 1k tbn, 24 tbcStream mapping:  Stream #0.0 -> #0.0Press [q] to stop encodingframe=    4 fps=  0 q=2.2 size=     656kB time=0.25 bitrate=21489.4kbits/s    frame=   12 fps=  9 q=24.3 size=     796kB time=0.75 bitrate=8689.9kbits/s    frame=   22 fps= 13 q=31.0 size=     879kB time=1.46 bitrate=4938.1kbits/s    frame=   34 fps= 15 q=31.0 size=     969kB time=2.25 bitrate=3529.8kbits/s    frame=   46 fps= 17 q=31.0 size=    1061kB time=3.04 bitrate=2856.2kbits/s    frame=   58 fps= 18 q=31.0 size=    1154kB time=3.83 bitrate=2466.7kbits/s    frame=   69 fps= 18 q=31.0 size=    1250kB time=4.58 bitrate=2234.0kbits/s    frame=   80 fps= 19 q=31.0 size=    1348kB time=5.29 bitrate=2087.7kbits/s    frame=   91 fps= 19 q=31.0 size=    1428kB time=6.04 bitrate=1936.5kbits/s    frame=  102 fps= 19 q=31.0 size=    1495kB time=6.75 bitrate=1813.9kbits/s    frame=  111 fps= 19 q=31.0 size=    1564kB time=7.38 bitrate=1737.3kbits/s    frame=  120 fps= 19 q=31.0 size=    1593kB time=7.96 bitrate=1639.2kbits/s    frame=  130 fps= 19 q=31.0 size=    1663kB time=8.62 bitrate=1579.1kbits/s    frame=  140 fps= 19 q=31.0 size=    1743kB time=9.29 bitrate=1536.7kbits/s    frame=  150 fps= 19 q=31.0 size=    1821kB time=9.96 bitrate=1498.1kbits/s    frame=  160 fps= 19 q=31.0 size=    1911kB time=10.62 bitrate=1473.4kbits/s    frame=  170 fps= 19 q=31.0 size=    2006kB time=11.29 bitrate=1455.4kbits/s    frame=  181 fps= 19 q=24.8 size=    2105kB time=12.04 bitrate=1432.1kbits/s    frame=  193 fps= 19 q=24.8 size=    2205kB time=12.83 bitrate=1407.3kbits/s    frame=  206 fps= 20 q=31.0 size=    2294kB time=13.71 bitrate=1370.6kbits/s    frame=  216 fps= 20 q=31.0 Lsize=    2348kB time=14.38 bitrate=1338.0kbits/s    video:2344kB audio:0kB global headers:0kB muxing overhead 0.152713%